<svg xmlns="http://www.w3.org/2000/svg" width="28" height="28" viewBox="0 0 28 28">
  <path id="ico_cod" d="M22.3,17.683l-4.9,3.266v5.034L26.076,20.2ZM19.776,16,16,13.483,12.224,16,16,18.517ZM27.2,14.417,24.824,16,27.2,17.583V14.418ZM26.076,11.8,17.4,6.017v5.034l4.9,3.266ZM9.7,14.317l4.9-3.266V6.017L5.924,11.8ZM5.924,20.2,14.6,25.983V20.949L9.7,17.683ZM4.8,17.583,7.176,16,4.8,14.417ZM2,11.8a1.4,1.4,0,0,1,.623-1.165l12.6-8.4a1.4,1.4,0,0,1,1.554,0l12.6,8.4A1.4,1.4,0,0,1,30,11.8v8.4a1.4,1.4,0,0,1-.623,1.165l-12.6,8.4a1.4,1.4,0,0,1-1.554,0l-12.6-8.4A1.4,1.4,0,0,1,2,20.2Z" transform="translate(-2 -2)" fill="#63636b"/>
</svg>
