<svg xmlns="http://www.w3.org/2000/svg" width="28" height="27.506" viewBox="0 0 28 27.506">
  <path id="ico_git" d="M16,2a14.116,14.116,0,0,0-4.427,27.481c.7.123.962-.3.962-.671,0-.334-.018-1.444-.018-2.626C9,26.837,8.09,25.321,7.81,24.527a5.136,5.136,0,0,0-1.435-1.993c-.49-.264-1.19-.917-.018-.934A2.8,2.8,0,0,1,8.51,23.046a2.981,2.981,0,0,0,4.077,1.163,2.972,2.972,0,0,1,.893-1.885c-3.115-.353-6.37-1.569-6.37-6.963a5.51,5.51,0,0,1,1.435-3.79,5.1,5.1,0,0,1,.14-3.737s1.172-.369,3.85,1.447a13.108,13.108,0,0,1,7,0c2.677-1.833,3.85-1.444,3.85-1.444a5.1,5.1,0,0,1,.14,3.737,5.48,5.48,0,0,1,1.435,3.789c0,5.412-3.272,6.611-6.387,6.963a3.353,3.353,0,0,1,.945,2.609c0,1.885-.018,3.4-.018,3.878,0,.369.263.809.963.668A14.122,14.122,0,0,0,16,2Z" transform="translate(-2 -2)" fill="#63636b"/>
</svg>
