<svg xmlns="http://www.w3.org/2000/svg" width="28" height="28" viewBox="0 0 28 28">
  <path id="ico_dri" d="M27.185,15.4a11.144,11.144,0,0,0-2.2-6.091,13.649,13.649,0,0,1-1.288,1.218,18.42,18.42,0,0,1-4.638,2.814c.234.49.448.965.637,1.413v0q.08.188.154.378a26.872,26.872,0,0,1,6.52.141C26.655,15.317,26.927,15.359,27.185,15.4ZM14.046,4.971a64.632,64.632,0,0,1,3.769,5.978,15.548,15.548,0,0,0,4.267-2.474A11.032,11.032,0,0,0,23.2,7.418,11.155,11.155,0,0,0,16,4.8a11.27,11.27,0,0,0-1.954.169ZM5.154,13.2q1.431-.036,2.856-.172a44.143,44.143,0,0,0,6.807-1.151q-1.752-3.045-3.78-5.918A11.225,11.225,0,0,0,5.154,13.2ZM7.3,23.049A19.982,19.982,0,0,1,9.5,20.39a17.673,17.673,0,0,1,7.218-4.606l.087-.025c-.231-.51-.448-.965-.666-1.393a42.122,42.122,0,0,1-7.976,1.459C6.848,15.944,5.668,16,4.8,16a11.154,11.154,0,0,0,2.5,7.045Zm12.911,3.332a50.326,50.326,0,0,0-2.285-7.993A17.751,17.751,0,0,0,11.16,22.67a13.678,13.678,0,0,0-1.844,2.317,11.217,11.217,0,0,0,10.891,1.4Zm2.622-1.505a11.2,11.2,0,0,0,4.182-6.818,17.09,17.09,0,0,0-1.743-.33,16.832,16.832,0,0,0-4.452-.046,55.114,55.114,0,0,1,2.013,7.2ZM16,30A14,14,0,1,1,30,16,14,14,0,0,1,16,30Z" transform="translate(-2 -2)" fill="#63636b"/>
</svg>
