<svg xmlns="http://www.w3.org/2000/svg" width="48" height="48" viewBox="0 0 48 48">
  <path id="logo_bootstrap" d="M-4468.189-1190h-35.622a6.2,6.2,0,0,1-6.189-6.189v-35.622a6.2,6.2,0,0,1,6.19-6.189h35.621a6.2,6.2,0,0,1,6.189,6.189v35.622A6.2,6.2,0,0,1-4468.189-1190Zm-28.3-38.531v29.062h14.084a14.917,14.917,0,0,0,3.805-.488,10.215,10.215,0,0,0,3.3-1.507,7.458,7.458,0,0,0,2.3-2.625,8.044,8.044,0,0,0,.854-3.806,8.08,8.08,0,0,0-1.323-4.66,7.016,7.016,0,0,0-4.009-2.707,7.265,7.265,0,0,0,2.951-2.4,6.388,6.388,0,0,0,1-3.663,7.843,7.843,0,0,0-.671-3.419,5.614,5.614,0,0,0-1.894-2.218,8.207,8.207,0,0,0-2.929-1.2,18.175,18.175,0,0,0-3.786-.366Zm13.228,24.1h-6.837v-7.979h6.96a5.406,5.406,0,0,1,3.338.958,3.772,3.772,0,0,1,1.262,3.194,4.015,4.015,0,0,1-.387,1.873,3.086,3.086,0,0,1-1.038,1.16,4.4,4.4,0,0,1-1.505.61A8.572,8.572,0,0,1-4483.258-1204.435Zm-.365-12.333h-6.472v-6.8h5.983a9.335,9.335,0,0,1,1.648.143,4.129,4.129,0,0,1,1.4.508,2.715,2.715,0,0,1,.977,1.018,3.4,3.4,0,0,1,.367,1.67,3.087,3.087,0,0,1-1.1,2.645A4.61,4.61,0,0,1-4483.623-1216.767Z" transform="translate(4510 1238)" fill="#656568"/>
</svg>
