<svg xmlns="http://www.w3.org/2000/svg" width="127.792" height="36" viewBox="0 0 127.792 36">
  <path id="logo_jQuery" d="M-5130.629-1117.024h0l4.235.034Q-5128.511-1117-5130.629-1117.024Zm0,0a.358.358,0,0,1-.3-.139.36.36,0,0,1-.06-.325l1.074-4.505a.618.618,0,0,1,.581-.451l1.616.025c1.62.032,2.588-2.845,2.588-2.845q.146-.448.249-.909l1.4-6.574.2-.924h0l.035-.154,1.418-6.287a.621.621,0,0,1,.577-.461h5.177l.005,0a.366.366,0,0,1,.372.462l-.357,1.649-1.15,5.317,1.15-5.317-2.761,12.751c-1.373,6.47-3.513,8.72-7.575,8.72Zm75.5-8.433h-.424c-9.4,0-9.509-5.307-8.3-10.982,1.208-5.568,3.362-11.085,12.45-11.085h.008c8.6,0,9.172,5.1,7.167,12.666a.432.432,0,0,1-.032.118.577.577,0,0,1-.506.35h-13.074a.762.762,0,0,0-.5.66h0s0,.029-.012.074c-.077,2.056,1.035,2.785,4.062,2.785h8.47a.363.363,0,0,1,.292.135.367.367,0,0,1,.07.328l-.909,4.443a.614.614,0,0,1-.564.464l-5.984.037-1.147,0h-1.068Zm9.368-10.2a.309.309,0,0,0,.309.31.309.309,0,0,0,.311-.31.31.31,0,0,0-.311-.31A.31.31,0,0,0-5045.763-1135.658Zm-11.493-3.741-.033.12a.051.051,0,0,0,0,.021.122.122,0,0,0-.006.017.3.3,0,0,0,.332.371h7.082a.57.57,0,0,0,.553-.484v0c.2-1.6-.372-3.026-3.286-3.026C-5055.2-1142.377-5056.579-1141.2-5057.256-1139.4Zm4.327,13.938h.02Zm-60.166-13.712c1.523-7.2,5.517-13.818,14.71-13.818,9.247,0,11.64,6.934,10.853,11.716a60.738,60.738,0,0,1-3.125,9.756l0-.006a.461.461,0,0,0-.028.106.288.288,0,0,0,.321.333l2.25.014a.347.347,0,0,1,.3.136.346.346,0,0,1,.054.324l-1.173,4.478a.653.653,0,0,1-.592.459l-13.953.056h-.111C-5112.638-1125.619-5114.611-1131.954-5113.095-1139.173Zm13.45-8.145c-4.032.3-5.989,3.31-6.986,8.145-1,4.727,0,7.931,4.1,7.931h5.4a.663.663,0,0,0,.6-.455l2.169-7.686h.006c1.259-4.253.326-7.965-4.5-7.965Q-5099.234-1147.348-5099.645-1147.317Zm10.117,21.648-6.74.025Zm0,0h0Zm64.538-.046a.349.349,0,0,1-.354-.458l1.091-4.243a2.053,2.053,0,0,0-.012-.912l-2.5-8.766a.333.333,0,0,1,.337-.454h5.585a.625.625,0,0,1,.576.461l.64,2.8c.057.253.225.285.371.07l8.688-12.726a1,1,0,0,1,.738-.39h3.929l.944,0h0l1.48-.01c.259,0,.344.166.188.374l-14.1,18.719a2.768,2.768,0,0,0-.4.835l-1.092,4.243a.644.644,0,0,1-.59.458Zm-13.175,0a2.455,2.455,0,0,0,.73-.1c.128-.051.311-.473.383-.742l.006-.027c-.069.267-.258.705-.389.758a2.428,2.428,0,0,1-.729.1h-3.9c-.041,0-.086,0-.135-.007h-.337l0,.012a.367.367,0,0,1-.3-.135.367.367,0,0,1-.081-.248.416.416,0,0,1,.013-.091l1.946-9.113-1.085,5.092,3.033-14.208-.011.062.076-.36v.006l-.082.383-.008.041.027-.129.479-2.27a.614.614,0,0,1,.571-.462h4.323l3.843.005,4.172,0c2.681,0,3.914.943,4.334,2.576l.32,1.367v0l.214.883v-.007a.456.456,0,0,1,.012.107.356.356,0,0,1-.376.364v-.011h0l-12.275.006a.614.614,0,0,0-.57.461l-1.583,7.426-1.481,7.323c0,.02-.009.041-.014.063l-.006.027c.008-.029.015-.055.021-.08l-.094.463a.6.6,0,0,1-.566.464Zm-41.045-.01-.187-.005c-6.462-.161-6.777-5.338-5.588-10.766,0,0,.1-.455.1-.463l2.063-9.788a.609.609,0,0,1,.57-.462h4.8a.368.368,0,0,1,.376.463l-1.509,7.37-.172.87-.4,2.115-.019.094c-.672,3.1-1.05,5.369,2.224,5.369h3.311a.612.612,0,0,0,.572-.461l3.321-15.359a.615.615,0,0,1,.573-.461h4.676v-.006a.368.368,0,0,1,.307.135.362.362,0,0,1,.066.327l-4.373,20.564a.615.615,0,0,1-.571.463Zm43.567-7.782-.7,3.437Zm0,0,.008-.036-.008.037Zm.093-.456.1-.453-.182.873Zm.1-.461.743-3.479-.745,3.487Zm-59.037-4.5-1.021,3.618Zm30.368-7.82-2.187,10.283Zm-57.714,6.634h0l-.733,3.221Zm27.346,1.186v0Zm-26.721-3.251a.36.36,0,0,1-.065-.326l.974-4.3a.623.623,0,0,1,.577-.46h5.137a.366.366,0,0,1,.372.461l-.941,4.3a.618.618,0,0,1-.574.462h-5.2A.362.362,0,0,1-5121.21-1142.18Z" transform="translate(5131.008 1152.99)" fill="#656568"/>
</svg>
