<svg xmlns="http://www.w3.org/2000/svg" width="48" height="48" viewBox="0 0 48 48">
  <path id="logo_wordpress" d="M27.511,5.032A20.559,20.559,0,0,1,41.47,10.472,3.391,3.391,0,0,0,37.8,13.946c-.151,4.956,5.926,6.011,2.651,15.98L37.74,38.171,30.363,16.439c-.114-.336.019-.528.432-.528h2.086a.2.2,0,0,0,.2-.206V14.47a.2.2,0,0,0-.2-.206q-5.925.259-11.779,0a.2.2,0,0,0-.2.206v1.235a.2.2,0,0,0,.2.206h2.1c.466,0,.6.155.707.456l3.031,8.29-4.56,13.769-7.5-22.077c-.093-.277.02-.438.286-.438h2.39a.2.2,0,0,0,.2-.206V14.47a.2.2,0,0,0-.2-.206c-2.507.133-5.024.16-7.368.184A20.62,20.62,0,0,1,27.51,5.031h0Zm18.15,10.81a20.647,20.647,0,0,1-8.246,27.934l6.436-18.229a28.774,28.774,0,0,0,1.809-9.7h0ZM34.42,45.117a20.714,20.714,0,0,1-12.911.3L27.866,27.2l6.554,17.92h0Zm-15.74-.794A20.65,20.65,0,0,1,8.728,17.111l9.952,27.213h0ZM27.51,3.1A22.573,22.573,0,1,1,4.937,25.668,22.576,22.576,0,0,1,27.51,3.1Zm0-1.427a24,24,0,1,1-24,24,24,24,0,0,1,24-24Z" transform="translate(-3.51 -1.668)" fill="#656568" fill-rule="evenodd"/>
</svg>
