<svg xmlns="http://www.w3.org/2000/svg" width="16" height="16.001" viewBox="0 0 16 16.001">
  <path id="ico_cursando" d="M-4774-1750a8,8,0,0,1,8-8,8,8,0,0,1,8,8,8,8,0,0,1-8,8A8,8,0,0,1-4774-1750Zm1.6,0a6.4,6.4,0,0,0,6.4,6.4,6.4,6.4,0,0,0,6.4-6.4,6.4,6.4,0,0,0-6.4-6.4A6.4,6.4,0,0,0-4772.4-1750Zm8.4,0a1,1,0,0,1,1-1,1,1,0,0,1,1,1,1,1,0,0,1-1,1A1,1,0,0,1-4764-1750Zm-3,0a1,1,0,0,1,1-1,1,1,0,0,1,1,1,1,1,0,0,1-1,1A1,1,0,0,1-4767-1750Zm-3,0a1,1,0,0,1,1-1,1,1,0,0,1,1,1,1,1,0,0,1-1,1A1,1,0,0,1-4770-1750Z" transform="translate(4774 1758)" fill="#656568"/>
</svg>
